<?xml version="1.0" encoding="UTF-8"?>
<svg version="1.1" xmlns="http://www.w3.org/2000/svg" width="500" height="500">
<path d="M0 0 C165 0 330 0 500 0 C500 165 500 330 500 500 C335 500 170 500 0 500 C0 335 0 170 0 0 Z " fill="#FEFEFE" transform="translate(0,0)"/>
<path d="M0 0 C4.61132605 -0.78305537 6.83659696 -0.77290146 10.8046875 1.86328125 C13.60099706 4.17838307 16.30568029 6.56746023 19 9 C19.89847656 9.69738281 20.79695312 10.39476562 21.72265625 11.11328125 C24.11800812 13.09776659 25.27251925 15.02931212 26.70703125 17.7578125 C28.4288746 20.74372816 30.44091762 23.50762247 32.4375 26.3125 C38.88342244 35.50429628 46.25755891 47.23260792 45 59 C43.32275391 61.32421875 43.32275391 61.32421875 40.9765625 63.6875 C40.11933594 64.55117187 39.26210938 65.41484375 38.37890625 66.3046875 C37.01572266 67.63886719 37.01572266 67.63886719 35.625 69 C34.75488281 69.88945312 33.88476562 70.77890625 32.98828125 71.6953125 C24.44995904 80.17038788 16.68274249 84.0674727 4.8828125 86.12890625 C1.4723608 87.15943569 0.12968434 88.1587964 -2 91 C-2.9464198 93.77599984 -2.9464198 93.77599984 -3.4375 96.875 C-4.69755259 102.99721206 -6.56549331 108.65108108 -8.73828125 114.50390625 C-10.36468579 119.01050705 -11.72182245 123.58046336 -13.0859375 128.171875 C-13.83342937 130.48462763 -14.66795772 132.52341544 -15.75 134.6875 C-18.41838479 141.75871969 -17.06381719 147.93366939 -15 155 C-14.41472296 157.67621842 -13.92232152 160.36648194 -13.4375 163.0625 C-13.24897461 164.0844043 -13.24897461 164.0844043 -13.05664062 165.12695312 C-12.33151414 169.07908227 -11.66063707 173.03617761 -11 177 C-31.79 177 -52.58 177 -74 177 C-73.21116508 172.26699045 -72.93581772 170.77702782 -71 167 C-68.16410376 157.02232835 -64.93530001 145.48467438 -70.015625 135.8515625 C-72.17097894 132.11100576 -74.53189258 128.54055885 -77 125 C-80.37446174 126.12482058 -81.01954686 126.98399549 -83.1875 129.6875 C-90.46108952 138.1683243 -101.07426005 145.47470535 -112.20703125 147.6171875 C-116.45397623 147.81048888 -119.02250939 147.75191586 -122.4375 145.125 C-130.52533306 128.94933387 -131.29546759 110.6114171 -127 93 C-124.07494792 85.3966814 -119.71008497 78.61416187 -115 72 C-109.9327693 73.16261137 -105.95809822 74.56285268 -103 79 C-103.10103841 82.0311523 -104.11680427 83.13398137 -106.125 85.4375 C-109 88 -109 88 -110.88671875 89.04296875 C-112.9682909 90.21253363 -114.43986087 91.18345918 -116 93 C-117.46830792 98.78088526 -116.46254675 103.80633452 -113.6875 109 C-112.045975 111.68165046 -110.29204677 113.84910567 -108 116 C-107.13375 114.3603125 -107.13375 114.3603125 -106.25 112.6875 C-104.55238009 109.71365519 -103.04159434 107.72357013 -100 106 C-99.34 106 -98.68 106 -98 106 C-97.95875 105.030625 -97.9175 104.06125 -97.875 103.0625 C-96.93864356 96.89503222 -93.48644412 92.0821796 -88.765625 88.12890625 C-83.24632738 84.46402232 -78.95785402 83.6548729 -72.4296875 83.38671875 C-69.66150645 82.94612402 -68.68001449 82.36465576 -66.8125 80.3125 C-64.83110252 76.6913253 -64.31193086 75.04240617 -65 71 C-67.14253026 66.50573618 -69.73557316 64.57621225 -73.9375 62 C-78.78484993 59.02071182 -82.41544131 56.16911739 -85 51 C-85.44521318 45.43483527 -84.72920926 40.85533482 -82 36 C-77.45103966 31.45103966 -72.55893626 27.93658382 -66 27.5625 C-58.92062107 27.89769787 -54.53190464 33.2256821 -49.734375 37.90234375 C-47.8552038 40.17512513 -47.0302631 42.25715044 -46 45 C-45.34 45.66 -44.68 46.32 -44 47 C-43.19619327 49.26656456 -42.47792757 51.56402049 -41.8125 53.875 C-41.26529297 55.72738281 -41.26529297 55.72738281 -40.70703125 57.6171875 C-39.86696614 61.63650455 -40.21978302 63.43956605 -42 67 C-37.50690701 69.31901574 -32.95482669 69.90416545 -28 69 C-25.18731921 66.77069744 -25.18731921 66.77069744 -23 64 C-18.52179951 60.46766242 -14.62624674 60.68303652 -9.1875 60.6875 C-2.58786819 60.53566396 1.07118781 60.10454088 5.921875 55.3671875 C10.48515039 52.36503264 16.69527282 53.01490092 22 53 C21.51466797 51.27716797 21.51466797 51.27716797 21.01953125 49.51953125 C19.93669878 45.19675754 19.76048366 41.12215031 19.6875 36.6875 C19.46019838 30.01535696 18.27141275 24.96536926 15.05859375 19.00390625 C14 17 14 17 14 15 C12.700625 15.020625 11.40125 15.04125 10.0625 15.0625 C5.30617675 15.07004972 0.71611047 14.59887117 -4 14 C-5.06528748 11.26980214 -5.07998186 10.20701188 -4.00390625 7.421875 C-3.29041016 6.09929687 -3.29041016 6.09929687 -2.5625 4.75 C-1.85287109 3.41195312 -1.85287109 3.41195312 -1.12890625 2.046875 C-0.75636719 1.37140625 -0.38382813 0.6959375 0 0 Z " fill="#121928" transform="translate(292,140)"/>
<path d="M0 0 C3.3 0 6.6 0 10 0 C10.34933594 1.14339844 10.69867188 2.28679687 11.05859375 3.46484375 C11.51806463 4.95577988 11.97770901 6.44666255 12.4375 7.9375 C12.66759766 8.69224609 12.89769531 9.44699219 13.13476562 10.22460938 C14.03001736 13.90208452 14.03001736 13.90208452 16 17 C17.65 11.39 19.3 5.78 21 0 C24.3 0 27.6 0 31 0 C31 10.56 31 21.12 31 32 C29.02 32 27.04 32 25 32 C24.67 26.39 24.34 20.78 24 15 C22.72476118 20.21963939 22.72476118 20.21963939 21.45727539 25.44116211 C20.11111111 30.88888889 20.11111111 30.88888889 19 32 C16.69 32 14.38 32 12 32 C10.68 27.38 9.36 22.76 8 18 C7.67 22.62 7.34 27.24 7 32 C4.69 32 2.38 32 0 32 C0 21.44 0 10.88 0 0 Z " fill="#171E2C" transform="translate(260,337)"/>
<path d="M0 0 C4.19295753 2.31040517 5.56166863 4.53491912 7 9 C7.30078125 12.33984375 7.30078125 12.33984375 7.3125 15.9375 C7.32925781 17.12214844 7.34601563 18.30679687 7.36328125 19.52734375 C6.87023185 24.24047188 5.52225963 27.48095868 2.15234375 30.84375 C-1.9904625 33.06928657 -6.45169203 32.71531253 -11 32 C-15.26279545 29.04214193 -16.97387801 26.03732613 -18 21 C-18.56819081 14.29331914 -18.42919186 8.87861462 -15 3 C-10.57273073 -1.15361907 -5.75875942 -0.76897381 0 0 Z " fill="#1A212F" transform="translate(222,337)"/>
<path d="M0 0 C15 0 15 0 19 2 C21.13749925 5.20624887 21.29574999 6.22458103 21.3125 9.9375 C21.33763672 11.21947266 21.33763672 11.21947266 21.36328125 12.52734375 C20.93012911 15.47557282 20.04225211 16.85836823 18 19 C17.34 19 16.68 19 16 19 C16.3609375 19.77085937 16.721875 20.54171875 17.09375 21.3359375 C17.5578125 22.33882813 18.021875 23.34171875 18.5 24.375 C18.9640625 25.37273437 19.428125 26.37046875 19.90625 27.3984375 C21 30 21 30 21 32 C18.69 32 16.38 32 14 32 C13.3291288 30.3767313 12.66342971 28.75132422 12 27.125 C11.62875 26.22007812 11.2575 25.31515625 10.875 24.3828125 C10 22 10 22 10 20 C8.68 20 7.36 20 6 20 C6 23.96 6 27.92 6 32 C4.02 32 2.04 32 0 32 C0 21.44 0 10.88 0 0 Z " fill="#161C2B" transform="translate(234,337)"/>
<path d="M0 0 C2.97 0 5.94 0 9 0 C11.21336029 6.39992153 13.06623763 12.80178518 14.6875 19.375 C14.91244141 20.26316406 15.13738281 21.15132813 15.36914062 22.06640625 C15.6872168 23.34451172 15.6872168 23.34451172 16.01171875 24.6484375 C16.20209717 25.41333496 16.39247559 26.17823242 16.58862305 26.96630859 C17 29 17 29 17 32 C14.66705225 32.04241723 12.33297433 32.04092937 10 32 C9 31 9 31 8.9375 27.9375 C8.958125 26.968125 8.97875 25.99875 9 25 C6.03 25 3.06 25 0 25 C-0.33 27.31 -0.66 29.62 -1 32 C-3.31 32 -5.62 32 -8 32 C-5.69913083 21.20549676 -3.19510963 10.5710542 0 0 Z " fill="#19202E" transform="translate(303,337)"/>
<path d="M0 0 C6.27 0 12.54 0 19 0 C19 1.98 19 3.96 19 6 C14.71 6 10.42 6 6 6 C6 8.31 6 10.62 6 13 C9.63 13 13.26 13 17 13 C17 14.65 17 16.3 17 18 C13.37 18 9.74 18 6 18 C6 22.62 6 27.24 6 32 C4.02 32 2.04 32 0 32 C0 21.44 0 10.88 0 0 Z " fill="#131A29" transform="translate(182,337)"/>
<path d="M0 0 C2.5 0.5 2.5 0.5 4.1328125 2.09375 C5.97630729 5.33830083 5.89859963 7.78699199 5.875 11.5 C5.88273438 12.716875 5.89046875 13.93375 5.8984375 15.1875 C5.48064884 18.6608802 4.9779198 20.08136057 2.5 22.5 C0 23 0 23 -2.5 22.5 C-4.9779198 20.08136057 -5.48064884 18.6608802 -5.8984375 15.1875 C-5.89070312 13.970625 -5.88296875 12.75375 -5.875 11.5 C-5.88273438 10.283125 -5.89046875 9.06625 -5.8984375 7.8125 C-5.38165287 3.51609443 -4.44443289 0.88888658 0 0 Z " fill="#F2F2F3" transform="translate(216.5,341.5)"/>
<path d="M0 0 C2.33294775 -0.04241723 4.66702567 -0.04092937 7 0 C8 1 8 1 8.1875 3.9375 C8 7 8 7 6 9 C2.875 9.125 2.875 9.125 0 9 C0 6.03 0 3.06 0 0 Z " fill="#F1F1F2" transform="translate(240,343)"/>
<path d="M0 0 C0.33 0 0.66 0 1 0 C1.66 3.63 2.32 7.26 3 11 C1.35 11 -0.3 11 -2 11 C-1 3.57142857 -1 3.57142857 0 0 Z " fill="#E2E3E4" transform="translate(307,345)"/>
</svg>
